<svg width="190" height="46" viewBox="0 0 190 46" fill="none" xmlns="http://www.w3.org/2000/svg">
<g clip-path="url(#clip0_18670_147766)">
<path d="M23.7801 45.5879H23.609C12.6236 45.5606 5.26616 43.383 3.73574 42.0383C2.12294 40.6693 0 33.5732 0 23.0879C0 12.6299 2.12294 5.50645 3.73574 4.13749C5.26616 2.79276 12.6553 0.615149 23.609 0.587891H23.7801C34.7655 0.615149 42.1229 2.79276 43.6534 4.13749C45.2662 5.50948 47.3891 12.6329 47.3891 23.0879C47.3891 33.5459 45.2662 40.6693 43.6534 42.0383C42.1229 43.4103 34.7624 45.5879 23.7801 45.5879Z" fill="#0357EE"/>
<path d="M34.2174 24.3752L33.3333 14.2109H28.007C28.007 14.2109 23.948 22.034 23.59 23.1001H23.5361L19.2585 14.2109H13.9037L13.0196 23.0213L12.275 31.962H15.5323C16.9392 31.962 17.4937 31.3896 17.6014 29.9873C17.6014 29.9873 18.1527 21.7978 18.0703 20.6045H18.1242L18.289 21.1496C18.5108 21.8795 21.5463 28.8697 21.5463 28.8697H25.5482C25.5482 28.8697 28.5868 21.9825 28.9702 20.6045H29.0241L29.493 29.9873C29.6039 31.3896 30.1838 31.962 31.5621 31.962H34.8194L34.2174 24.3752Z" fill="white"/>
<path d="M171.521 25.8346H167.354V13.9622L169.62 13.9501C170.181 13.9501 170.608 14.0743 170.897 14.3196C171.201 14.5528 171.353 14.8739 171.353 15.2888V15.4493L171.331 15.7249H171.378C172.231 14.356 173.539 13.6685 175.304 13.6685C178.276 13.6685 179.762 15.1525 179.762 18.1236V25.8316H177.354C176.743 25.8316 176.293 25.7014 176.004 25.4379C175.732 25.1623 175.596 24.7292 175.596 24.1446V18.8626C175.596 17.8147 175.139 17.2938 174.224 17.2938C173.004 17.2938 172.183 17.8632 171.765 19.0019C171.606 19.4169 171.524 19.9408 171.524 20.5708L171.521 25.8346Z" fill="black"/>
<path fill-rule="evenodd" clip-rule="evenodd" d="M149.61 19.9261C149.61 20.7711 149.876 21.4646 150.406 22.0037C150.954 22.5277 151.625 22.7882 152.43 22.7882C153.235 22.7882 153.9 22.5247 154.43 22.0037C154.978 21.4646 155.25 20.7711 155.25 19.9261C155.25 19.0811 154.978 18.3633 154.43 17.8272C153.9 17.273 153.232 16.9943 152.43 16.9943C151.629 16.9943 150.954 17.2699 150.406 17.8272C149.876 18.3663 149.61 19.0659 149.61 19.9261ZM145.418 19.9261C145.418 18.0816 146.084 16.5794 147.418 15.4255C148.752 14.2564 150.412 13.6719 152.405 13.6719C154.398 13.6719 156.084 14.2564 157.414 15.4255C158.764 16.5794 159.439 18.0816 159.439 19.9261C159.439 21.7705 158.764 23.2485 157.414 24.4055C156.08 25.5443 154.42 26.1137 152.427 26.1137C150.434 26.1137 148.78 25.5443 147.418 24.4055C146.084 23.2516 145.418 21.7584 145.418 19.9261Z" fill="black"/>
<path fill-rule="evenodd" clip-rule="evenodd" d="M135.795 22.0037C135.361 21.4495 135.143 20.7711 135.143 19.9715C135.143 19.0326 135.368 18.3088 135.817 17.803C136.267 17.2942 136.854 17.0398 137.576 17.0398C138.298 17.0398 138.885 17.3093 139.335 17.8454C139.785 18.3815 140.01 19.0902 140.01 19.9685C140.01 20.8468 139.778 21.5222 139.312 22.0462C138.862 22.555 138.286 22.8094 137.579 22.8094C136.873 22.8094 136.242 22.5459 135.795 22.0037ZM131.096 30.4537H135.263V26.1137C135.263 25.8078 135.247 25.4685 135.215 25.096H135.263L135.602 25.3504C135.859 25.5352 136.255 25.7048 136.784 25.8592C137.332 26.0289 137.877 26.1137 138.422 26.1137C140.092 26.1137 141.473 25.5443 142.567 24.4055C143.66 23.2667 144.205 21.7675 144.205 19.9049C144.205 18.0422 143.691 16.5249 142.665 15.4043C141.651 14.2504 140.304 13.6719 138.615 13.6719C137.826 13.6719 137.129 13.8021 136.518 14.0656C135.906 14.3291 135.482 14.5744 135.241 14.8046C135.016 15.0196 134.902 15.1499 134.902 15.1983H134.854V14.9924C134.854 14.6865 134.718 14.4381 134.446 14.2534C134.189 14.0535 133.786 13.9535 133.241 13.9535H131.033L131.096 17.1397V30.4537Z" fill="black"/>
<path fill-rule="evenodd" clip-rule="evenodd" d="M121.353 18.1937H124.895C124.895 17.7939 124.75 17.4395 124.461 17.1336C124.173 16.8277 123.828 16.6733 123.425 16.6733C122.348 16.6703 121.657 17.1791 121.353 18.1937ZM116.968 19.8807C116.968 18.0968 117.554 16.6188 118.726 15.4497C119.914 14.2655 121.48 13.6719 123.425 13.6719C125.209 13.6719 126.606 14.211 127.617 15.2892C128.644 16.3371 129.157 17.7121 129.157 19.4203L129.062 20.6196H121.233C121.378 21.3132 121.708 21.8523 122.221 22.237C122.75 22.6065 123.384 22.7912 124.125 22.7912C124.607 22.7912 125.12 22.7003 125.665 22.5156C126.214 22.3157 126.654 22.1007 126.99 21.8705L127.424 21.5464L129.087 24.2238C128.942 24.3631 128.638 24.5842 128.172 24.8931C127.69 25.1687 127.319 25.3625 127.063 25.4716C125.985 25.9016 124.892 26.1167 123.786 26.1167C121.698 26.1167 120.035 25.5019 118.799 24.2722C117.579 23.0486 116.968 21.5858 116.968 19.8807Z" fill="black"/>
<path d="M111.071 24.1538C111.071 24.7383 111.207 25.1714 111.48 25.447C111.768 25.7105 112.218 25.8408 112.83 25.8408H115.238V15.6341C115.238 15.0496 115.092 14.6256 114.804 14.3651C114.531 14.0895 114.087 13.9502 113.479 13.9502H111.071V24.1538Z" fill="black"/>
<path d="M100.862 25.8377H96.6952V17.8056C96.6952 17.4664 96.6984 17.3422 96.6984 17.3422V13.9501H98.9607C99.5216 13.9501 99.9493 14.0743 100.238 14.3196C100.542 14.5528 100.694 14.8739 100.694 15.2888V15.4493L100.672 15.7249H100.719C101.572 14.356 102.88 13.6685 104.645 13.6685C107.617 13.6685 109.103 15.1525 109.103 18.1236V22.1518C109.103 22.1821 109.103 22.2063 109.103 22.2275C109.103 22.2517 109.103 22.2699 109.103 22.2911C109.103 22.3274 109.103 22.3607 109.1 22.4425C109.072 23.7509 109.091 25.8346 109.091 25.8346H106.695C106.084 25.8346 105.634 25.7044 105.345 25.4409C105.073 25.1653 104.937 24.7322 104.937 24.1477V18.8626C104.937 17.8147 104.48 17.2938 103.565 17.2938C102.345 17.2938 101.524 17.8632 101.106 19.0019C100.947 19.4169 100.865 19.9408 100.865 20.5708V25.8346L100.862 25.8377Z" fill="black"/>
<path fill-rule="evenodd" clip-rule="evenodd" d="M85.5228 19.9261C85.5228 20.7711 85.789 21.4646 86.3181 22.0037C86.8663 22.5277 87.5412 22.7882 88.3428 22.7882C89.1445 22.7882 89.8131 22.5247 90.3422 22.0037C90.8904 21.4646 91.1629 20.7711 91.1629 19.9261C91.1629 19.0811 90.8904 18.3633 90.3422 17.8272C89.8131 17.273 89.1445 16.9943 88.3428 16.9943C87.538 16.9943 86.8663 17.2699 86.3181 17.8272C85.789 18.3663 85.5228 19.0659 85.5228 19.9261ZM81.3276 19.9261C81.3276 18.0816 81.993 16.5794 83.327 15.4255C84.661 14.2564 86.3213 13.6719 88.3143 13.6719C90.3074 13.6719 91.993 14.2564 93.3238 15.4255C94.6736 16.5794 95.3485 18.0816 95.3485 19.9261C95.3485 21.7705 94.6736 23.2485 93.3238 24.4055C91.9899 25.5443 90.3295 26.1137 88.3365 26.1137C86.3435 26.1137 84.6895 25.5443 83.327 24.4055C81.9962 23.2516 81.3276 21.7584 81.3276 19.9261Z" fill="black"/>
<path d="M78.9829 9.33164L79.7909 18.7629L80.3454 25.8076H77.3606C76.0963 25.8076 75.564 25.2776 75.4626 23.9753L75.0349 15.2648H74.9842C74.6293 16.5459 71.8504 22.9364 71.8504 22.9364H68.1844C68.1844 22.9364 65.3992 16.446 65.1996 15.7676L65.0475 15.2618H64.9968C65.0792 16.3703 64.5691 23.9722 64.5691 23.9722C64.4645 25.2715 63.9575 25.8046 62.6711 25.8046H59.6832L60.3644 17.506L61.1724 9.32861H66.0837L70.0032 17.5787H70.0539C70.3834 16.5914 74.1033 9.32861 74.1033 9.32861H78.9829V9.33164Z" fill="black"/>
<path d="M182.744 17.067V21.4525C182.744 23.1001 183.46 24.3449 184.889 25.1899C185.884 25.6987 187.104 25.9532 188.549 25.9532C188.999 25.9532 189.376 25.932 189.68 25.8835V22.4217L189.125 22.4429C187.649 22.4429 186.911 21.9341 186.911 20.9195V17.067H189.515V13.9505H186.911V10.7432H182.861V13.9505H181.15V17.067H182.744Z" fill="black"/>
<path d="M115.212 10.8763C115.212 11.3003 115.143 11.7091 115.013 12.0968C114.921 12.3664 114.696 12.5784 114.414 12.6662C114.011 12.7874 113.584 12.857 113.14 12.857C112.696 12.857 112.269 12.7904 111.866 12.6662C111.584 12.5814 111.359 12.3664 111.267 12.0968C111.138 11.7122 111.068 11.3003 111.068 10.8763C111.068 10.4522 111.138 10.0434 111.267 9.6557C111.359 9.38615 111.584 9.17415 111.866 9.08631C112.269 8.96517 112.696 8.89551 113.14 8.89551C113.584 8.89551 114.011 8.96214 114.414 9.08631C114.696 9.17112 114.921 9.38615 115.013 9.6557C115.143 10.0403 115.212 10.4522 115.212 10.8763Z" fill="black"/>
<path d="M161.077 24.1508C161.077 24.7353 161.214 25.1684 161.486 25.444C161.774 25.7075 162.224 25.8377 162.836 25.8377H165.244V15.6341C165.244 15.0496 165.098 14.6256 164.81 14.3651C164.537 14.0895 164.094 13.9502 163.485 13.9502H161.077V24.1508Z" fill="black"/>
<path d="M165.215 10.8763C165.215 11.3003 165.146 11.7091 165.016 12.0968C164.924 12.3664 164.699 12.5784 164.417 12.6662C164.015 12.7874 163.587 12.857 163.143 12.857C162.7 12.857 162.272 12.7904 161.869 12.6662C161.587 12.5814 161.362 12.3664 161.271 12.0968C161.141 11.7122 161.071 11.3003 161.071 10.8763C161.071 10.4522 161.141 10.0434 161.271 9.6557C161.362 9.38615 161.587 9.17415 161.869 9.08631C162.272 8.96517 162.7 8.89551 163.143 8.89551C163.587 8.89551 164.015 8.96214 164.417 9.08631C164.699 9.17112 164.924 9.38615 165.016 9.6557C165.146 10.0403 165.215 10.4522 165.215 10.8763Z" fill="black"/>
<path d="M61.7839 37.1956L60.4151 33.437H60.3834V37.1956H59.8036V32.8252H60.7985L62.0691 36.3839H62.0913L63.2985 32.8252H64.2807V37.1956H63.6565V33.437H63.628L62.3099 37.1956H61.7839Z" fill="black"/>
<path d="M69.7402 32.8252H69.116V37.1956H69.7402V32.8252Z" fill="black"/>
<path d="M76.5843 32.7432C77.8771 32.7432 78.609 33.5124 78.6946 34.6361L78.0925 34.6633C78.0418 33.8577 77.519 33.255 76.5843 33.255C75.6654 33.255 75.0063 33.9334 75.0063 35.0086C75.0063 36.0838 75.6654 36.7622 76.5843 36.7622C77.519 36.7622 78.0418 36.1595 78.0925 35.3539L78.6946 35.3811C78.609 36.5048 77.8771 37.2741 76.5843 37.2741C75.3359 37.2741 74.3663 36.3503 74.3663 35.0056C74.3663 33.6609 75.3359 32.7432 76.5843 32.7432Z" fill="black"/>
<path d="M85.1172 34.9544C85.884 34.9544 86.2294 34.6757 86.2294 34.1366C86.2294 33.6369 85.884 33.3189 85.1172 33.3189H83.9259V34.9574H85.1172V34.9544ZM86.2706 37.1956C86.185 37.0775 86.1185 36.7594 86.0837 36.2446C86.0551 35.76 85.8175 35.4329 85.1996 35.4329H83.9227V37.1956H83.3143V32.8252H85.1521C86.2991 32.8252 86.8536 33.337 86.8536 34.1154C86.8536 34.7878 86.3783 35.1421 85.827 35.2057C86.3815 35.3087 86.6445 35.6358 86.6889 36.1476C86.7459 36.7867 86.7681 37.035 86.917 37.1956H86.2706Z" fill="black"/>
<path d="M93.552 33.255C92.576 33.255 91.9455 33.9425 91.9455 35.0086C91.9455 36.0747 92.576 36.7622 93.552 36.7622C94.5279 36.7622 95.1521 36.0747 95.1521 35.0086C95.1521 33.9425 94.5311 33.255 93.552 33.255ZM93.552 37.2801C92.2307 37.2801 91.3055 36.3564 91.3055 35.0116C91.3055 33.6669 92.2307 32.7432 93.552 32.7432C94.8669 32.7432 95.7985 33.6669 95.7985 35.0116C95.7985 36.3564 94.8669 37.2801 93.552 37.2801Z" fill="black"/>
<path d="M100.418 37.1956V32.8252H103.504V33.3249H101.036V34.7757H102.975V35.2754H101.036V37.1956H100.418Z" fill="black"/>
<path d="M108.707 32.8252H108.083V37.1956H108.707V32.8252Z" fill="black"/>
<path d="M116.664 36.1688V32.8252H117.243V37.1956H116.749L114.122 33.6853V37.1956H113.539V32.8252H114.186L116.66 36.1688H116.664Z" fill="black"/>
<path d="M123.061 35.4329H124.728L123.901 33.4915H123.872L123.061 35.4329ZM124.252 32.8252L126.131 37.1956H125.472L124.927 35.9114H122.868L122.335 37.1956H121.727L123.571 32.8252H124.252Z" fill="black"/>
<path d="M133.739 36.1688V32.8252H134.319V37.1956H133.824L131.198 33.6853V37.1956H130.615V32.8252H131.261L133.736 36.1688H133.739Z" fill="black"/>
<path d="M141.163 32.7432C142.456 32.7432 143.188 33.5124 143.273 34.6361L142.671 34.6633C142.62 33.8577 142.098 33.255 141.163 33.255C140.244 33.255 139.585 33.9334 139.585 35.0086C139.585 36.0838 140.244 36.7622 141.163 36.7622C142.098 36.7622 142.62 36.1595 142.671 35.3539L143.273 35.3811C143.188 36.5048 142.456 37.2741 141.163 37.2741C139.914 37.2741 138.945 36.3503 138.945 35.0056C138.945 33.6609 139.914 32.7432 141.163 32.7432Z" fill="black"/>
<path d="M151.112 37.1956H147.893V32.8252H151.049V33.3249H148.495V34.6999H150.526V35.1906H148.495V36.6958H151.115V37.1956H151.112Z" fill="black"/>
<path d="M161.638 35.1785V36.7049H162.944C163.618 36.7049 163.97 36.4202 163.97 35.9478C163.97 35.4692 163.618 35.1785 162.944 35.1785H161.638ZM161.638 34.7121H162.902C163.555 34.7121 163.837 34.4425 163.837 34.0185C163.837 33.6036 163.558 33.3189 162.902 33.3189H161.638V34.7121ZM162.959 37.1956H161.036V32.8252H162.88C163.999 32.8252 164.458 33.2977 164.458 33.9912C164.458 34.497 164.084 34.8453 163.603 34.9271C164.157 35.018 164.585 35.3723 164.585 35.9962C164.588 36.7504 164.015 37.1956 162.959 37.1956Z" fill="black"/>
<path d="M170.139 35.4329H171.806L170.979 33.4915H170.951L170.139 35.4329ZM171.331 32.8252L173.21 37.1956H172.551L172.006 35.9114H169.946L169.414 37.1956H168.805L170.65 32.8252H171.331Z" fill="black"/>
<path d="M180.814 36.1688V32.8252H181.397V37.1956H180.9L178.273 33.6853V37.1956H177.693V32.8252H178.34L180.814 36.1688Z" fill="black"/>
<path d="M189.246 37.1956L187.38 35.1209L186.854 35.6358V37.1956H186.233V32.8252H186.854V34.9816L189.043 32.8252H189.781L187.839 34.7484L189.997 37.1956H189.243H189.246Z" fill="black"/>
</g>
<defs>
<clipPath id="clip0_18670_147766">
<rect width="190" height="45" fill="white" transform="translate(0 0.5)"/>
</clipPath>
</defs>
</svg>
